<?xml version="1.0" encoding="UTF-8"?>
<svg width="397px" height="174px" viewBox="0 0 397 174" version="1.1" xmlns="http://www.w3.org/2000/svg" xmlns:xlink="http://www.w3.org/1999/xlink">
    <!-- Generator: Sketch 43.1 (39012) - http://www.bohemiancoding.com/sketch -->
    <title>Page 1</title>
    <desc>Created with Sketch.</desc>
    <defs></defs>
    <g id="Page-1" stroke="none" stroke-width="1" fill="none" fill-rule="evenodd">
        <g id="404" transform="translate(-519.000000, -458.000000)" fill="#D95129">
            <g id="Page-1" transform="translate(519.000000, 458.000000)">
                <path d="M221.337142,74.2760069 C221.52436,78.3290082 221.619431,82.6732871 221.619431,87.3117708 C221.619431,107.775842 219.773583,122.546097 216.084813,131.622537 C212.394579,140.70044 206.39923,145.237928 198.09584,145.237928 C196.159309,145.237928 194.35734,144.992026 192.67677,144.522176 L181.509536,171.893475 C186.58635,173.276677 192.113655,173.970473 198.09584,173.970473 C218.160295,173.970473 233.014836,166.893456 242.66239,152.73942 C252.308481,138.585385 257.13372,116.776169 257.13372,87.3117708 C257.13372,59.0154101 252.210484,37.4857614 242.371325,22.7228246 L221.337142,74.2760069 Z" id="Fill-10"></path>
                <path d="M157.272471,156.27588 L175.713399,111.078108 C175.030347,104.276267 174.689553,96.3546916 174.689553,87.3119172 C174.689553,66.6195082 176.494447,51.754112 180.108623,42.7142649 C183.721336,33.6758815 189.716685,29.155958 198.096133,29.155958 C201.862423,29.155958 205.150431,30.1146853 207.97332,32.0087206 L219.419918,3.9538714 C213.09255,1.52411976 205.985597,0.307780229 198.096133,0.307780229 C178.109198,0.307780229 163.311699,7.36576964 153.703637,21.4817484 C144.094112,35.599191 139.290812,57.5416047 139.290812,87.3119172 C139.290812,115.85418 144.228674,137.432131 154.107325,152.04577 C155.112156,153.532895 156.16818,154.94098 157.272471,156.27588" id="Fill-7"></path>
                <path d="M71.9514429,109.005794 L71.9514429,80.3888814 C71.9514429,75.6201279 72.1430483,68.6967994 72.5277219,59.618896 C72.9123954,50.5424563 73.2195492,45.2731154 73.4506458,43.8108733 L72.5277219,43.8108733 C69.6828929,50.1194453 66.2617849,56.2728645 62.2658606,62.2725946 L31.363266,109.005794 L71.9514429,109.005794 Z M127.067993,136.699108 L106.773905,136.699108 L106.773905,171.662648 L71.9514429,171.662648 L71.9514429,136.699108 L-5.9342301e-05,136.699108 L-5.9342301e-05,111.890758 L73.9113765,2.9617716 L106.773905,2.9617716 L106.773905,109.005794 L127.067993,109.005794 L127.067993,136.699108 Z" id="Fill-1"></path>
                <path d="M341.537821,109.005794 L341.537821,80.3888814 C341.537821,75.6201279 341.729427,68.6967994 342.1141,59.618896 C342.498774,50.5424563 342.805928,45.2731154 343.037024,43.8108733 L342.1141,43.8108733 C339.269271,50.1194453 335.848163,56.2728645 331.852239,62.2725946 L300.949644,109.005794 L341.537821,109.005794 Z M396.654372,136.699108 L376.360283,136.699108 L376.360283,171.662648 L341.537821,171.662648 L341.537821,136.699108 L269.586319,136.699108 L269.586319,111.890758 L343.497755,2.9617716 L376.360283,2.9617716 L376.360283,109.005794 L396.654372,109.005794 L396.654372,136.699108 Z" id="Fill-4"></path>
            </g>
        </g>
    </g>
</svg>